<?xml version="1.0" encoding="UTF-8" standalone="no"?>
<svg
   xmlns:dc="http://purl.org/dc/elements/1.1/"
   xmlns:cc="http://creativecommons.org/ns#"
   xmlns:rdf="http://www.w3.org/1999/02/22-rdf-syntax-ns#"
   xmlns:svg="http://www.w3.org/2000/svg"
   xmlns="http://www.w3.org/2000/svg"
   xmlns:sodipodi="http://sodipodi.sourceforge.net/DTD/sodipodi-0.dtd"
   xmlns:inkscape="http://www.inkscape.org/namespaces/inkscape"
   viewBox="0 0 273.60 180.00"
   version="1.1"
   id="svg148"
   sodipodi:docname="falseposplot.svg"
   inkscape:version="0.92.2 (5c3e80d, 2017-08-06)"
   inkscape:export-filename="D:\Flynn\ChangePointTiming\Julia_KCP_Notebooks\SimulationsandFigures\falseposplot.png"
   inkscape:export-xdpi="600"
   inkscape:export-ydpi="600">
  <metadata
     id="metadata152">
    <rdf:RDF>
      <cc:Work
         rdf:about="">
        <dc:format>image/svg+xml</dc:format>
        <dc:type
           rdf:resource="http://purl.org/dc/dcmitype/StillImage" />
      </cc:Work>
    </rdf:RDF>
  </metadata>
  <sodipodi:namedview
     pagecolor="#ffffff"
     bordercolor="#666666"
     borderopacity="1"
     objecttolerance="10"
     gridtolerance="10"
     guidetolerance="10"
     inkscape:pageopacity="0"
     inkscape:pageshadow="2"
     inkscape:window-width="1920"
     inkscape:window-height="1027"
     id="namedview150"
     showgrid="false"
     inkscape:zoom="2.9359404"
     inkscape:cx="156.71845"
     inkscape:cy="88.676568"
     inkscape:window-x="-8"
     inkscape:window-y="-8"
     inkscape:window-maximized="1"
     inkscape:current-layer="svg148" />
  <defs
     id="defs4">
    <style
       type="text/css"
       id="style2"><![CDATA[
    line, polyline, path, rect, circle {
      fill: none;
      stroke: #000000;
      stroke-linecap: round;
      stroke-linejoin: round;
      stroke-miterlimit: 10.00;
    }
  ]]></style>
  </defs>
  <rect
     width="100%"
     height="100%"
     style="stroke: none; fill: #FFFFFF;"
     id="rect6" />
  <rect
     x="0.00"
     y="0.00"
     width="273.60"
     height="180.00"
     style="stroke-width: 1.07; stroke: #FFFFFF; fill: #FFFFFF;"
     id="rect8" />
  <defs
     id="defs13">
    <clipPath
       id="cpNTguOTA1M3wyNjcuNjIyfDE0Ni43NzR8NS45Nzc1OA==">
      <rect
         x="58.91"
         y="5.98"
         width="208.72"
         height="140.80"
         id="rect10" />
    </clipPath>
  </defs>
  <rect
     x="58.91"
     y="5.98"
     width="208.72"
     height="140.80"
     style="stroke-width: 1.07; stroke: none; fill: #FFFFFF;"
     clip-path="url(#cpNTguOTA1M3wyNjcuNjIyfDE0Ni43NzR8NS45Nzc1OA==)"
     id="rect15" />
  <polyline
     points="58.91,140.37 267.62,140.37 "
     style="stroke-width: 1.07; stroke: #EBEBEB; stroke-linecap: butt;"
     clip-path="url(#cpNTguOTA1M3wyNjcuNjIyfDE0Ni43NzR8NS45Nzc1OA==)"
     id="polyline17" />
  <polyline
     points="58.91,113.26 267.62,113.26 "
     style="stroke-width: 1.07; stroke: #EBEBEB; stroke-linecap: butt;"
     clip-path="url(#cpNTguOTA1M3wyNjcuNjIyfDE0Ni43NzR8NS45Nzc1OA==)"
     id="polyline19" />
  <polyline
     points="58.91,86.14 267.62,86.14 "
     style="stroke-width: 1.07; stroke: #EBEBEB; stroke-linecap: butt;"
     clip-path="url(#cpNTguOTA1M3wyNjcuNjIyfDE0Ni43NzR8NS45Nzc1OA==)"
     id="polyline21" />
  <polyline
     points="58.91,59.02 267.62,59.02 "
     style="stroke-width: 1.07; stroke: #EBEBEB; stroke-linecap: butt;"
     clip-path="url(#cpNTguOTA1M3wyNjcuNjIyfDE0Ni43NzR8NS45Nzc1OA==)"
     id="polyline23" />
  <polyline
     points="58.91,31.90 267.62,31.90 "
     style="stroke-width: 1.07; stroke: #EBEBEB; stroke-linecap: butt;"
     clip-path="url(#cpNTguOTA1M3wyNjcuNjIyfDE0Ni43NzR8NS45Nzc1OA==)"
     id="polyline25" />
  <polyline
     points="100.46,146.77 100.46,5.98 "
     style="stroke-width: 1.07; stroke: #EBEBEB; stroke-linecap: butt;"
     clip-path="url(#cpNTguOTA1M3wyNjcuNjIyfDE0Ni43NzR8NS45Nzc1OA==)"
     id="polyline27" />
  <polyline
     points="142.61,146.77 142.61,5.98 "
     style="stroke-width: 1.07; stroke: #EBEBEB; stroke-linecap: butt;"
     clip-path="url(#cpNTguOTA1M3wyNjcuNjIyfDE0Ni43NzR8NS45Nzc1OA==)"
     id="polyline29" />
  <polyline
     points="184.76,146.77 184.76,5.98 "
     style="stroke-width: 1.07; stroke: #EBEBEB; stroke-linecap: butt;"
     clip-path="url(#cpNTguOTA1M3wyNjcuNjIyfDE0Ni43NzR8NS45Nzc1OA==)"
     id="polyline31" />
  <polyline
     points="226.91,146.77 226.91,5.98 "
     style="stroke-width: 1.07; stroke: #EBEBEB; stroke-linecap: butt;"
     clip-path="url(#cpNTguOTA1M3wyNjcuNjIyfDE0Ni43NzR8NS45Nzc1OA==)"
     id="polyline33" />
  <polyline
     points="59.16,12.38 59.58,38.95 60.00,38.41 60.42,54.14 60.84,68.78 61.27,70.41 61.69,66.61 62.11,70.95 62.53,79.09 62.95,84.51 63.37,83.43 63.79,91.02 64.22,86.68 64.64,96.99 65.06,102.41 65.48,97.53 65.90,99.16 66.32,111.63 66.74,107.83 67.17,110.00 67.59,101.32 68.01,102.95 68.43,106.21 68.85,107.29 69.27,105.66 69.70,111.63 70.12,106.21 70.54,106.75 70.96,110.00 71.38,107.83 71.80,114.88 72.22,116.51 72.65,112.71 73.07,110.00 73.49,118.14 73.91,115.97 74.33,111.09 74.75,117.60 75.17,116.51 75.60,116.51 76.02,119.76 76.44,122.48 76.86,113.80 77.28,119.22 77.70,122.48 78.12,114.34 78.55,119.76 78.97,119.22 79.39,122.48 79.81,112.17 80.23,123.02 80.65,127.90 81.08,115.97 81.50,123.56 81.92,121.93 82.34,125.19 82.76,114.88 83.18,120.85 83.60,120.85 84.03,124.10 84.45,125.19 84.87,113.26 85.29,126.82 85.71,122.48 86.13,123.02 86.55,121.93 86.98,123.56 87.40,128.98 87.82,124.65 88.24,123.02 88.66,126.27 89.08,124.65 89.50,124.10 89.93,122.48 90.35,124.65 90.77,121.93 91.19,124.65 91.61,127.36 92.03,125.73 92.46,128.44 92.88,124.10 93.30,125.73 93.72,128.98 94.14,128.44 94.56,125.19 94.98,129.53 95.41,124.10 95.83,126.27 96.25,126.27 96.67,124.65 97.09,125.73 97.51,126.82 97.93,129.53 98.36,126.27 98.78,127.36 99.20,128.44 99.62,124.10 100.04,126.82 100.46,125.19 100.88,125.73 101.31,124.65 101.73,130.07 102.15,126.27 102.57,122.48 102.99,128.98 103.41,127.36 103.84,129.53 104.26,131.15 104.68,130.07 105.10,130.61 105.52,126.27 105.94,127.90 106.36,131.15 106.79,132.78 107.21,127.36 107.63,127.36 108.05,125.19 108.47,128.44 108.89,131.15 109.31,127.36 109.74,125.73 110.16,128.44 110.58,128.98 111.00,128.44 111.42,124.10 111.84,127.90 112.26,130.07 112.69,128.44 113.11,126.82 113.53,130.61 113.95,131.70 114.37,128.98 114.79,135.49 115.22,128.98 115.64,125.73 116.06,130.61 116.48,128.44 116.90,131.70 117.32,131.15 117.74,127.36 118.17,129.53 118.59,133.32 119.01,132.78 119.43,126.27 119.85,127.90 120.27,129.53 120.69,130.07 121.12,127.90 121.54,131.15 121.96,125.73 122.38,130.07 122.80,133.87 123.22,130.61 123.64,131.15 124.07,128.98 124.49,131.15 124.91,133.32 125.33,126.27 125.75,130.07 126.17,132.24 126.60,132.24 127.02,132.24 127.44,130.61 127.86,130.61 128.28,131.15 128.70,131.15 129.12,130.07 129.55,130.61 129.97,128.44 130.39,130.61 130.81,128.98 131.23,134.41 131.65,131.70 132.07,132.78 132.50,128.44 132.92,127.36 133.34,132.24 133.76,131.15 134.18,132.78 134.60,131.15 135.02,130.07 135.45,122.48 135.87,133.32 136.29,129.53 136.71,132.24 137.13,135.49 137.55,132.24 137.98,131.70 138.40,125.73 138.82,132.78 139.24,134.95 139.66,129.53 140.08,134.95 140.50,131.70 140.93,129.53 141.35,129.53 141.77,132.78 142.19,130.07 142.61,129.53 143.03,131.15 143.45,131.70 143.88,131.70 144.30,133.32 144.72,128.98 145.14,130.07 145.56,130.61 145.98,131.70 146.40,127.36 146.83,129.53 147.25,128.44 147.67,131.15 148.09,132.24 148.51,132.78 148.93,132.24 149.36,135.49 149.78,131.70 150.20,131.70 150.62,128.44 151.04,128.98 151.46,132.24 151.88,128.98 152.31,129.53 152.73,127.36 153.15,133.87 153.57,132.78 153.99,131.15 154.41,133.32 154.83,133.32 155.26,128.98 155.68,130.61 156.10,133.87 156.52,132.24 156.94,132.78 157.36,131.15 157.78,129.53 158.21,132.78 158.63,133.87 159.05,127.36 159.47,126.82 159.89,133.32 160.31,127.90 160.73,129.53 161.16,132.24 161.58,125.73 162.00,129.53 162.42,128.44 162.84,131.15 163.26,132.24 163.69,133.87 164.11,132.78 164.53,132.78 164.95,131.70 165.37,131.15 165.79,136.04 166.21,131.15 166.64,128.44 167.06,130.07 167.48,132.24 167.90,132.24 168.32,134.41 168.74,131.15 169.16,132.24 169.59,129.53 170.01,128.98 170.43,134.95 170.85,132.78 171.27,130.07 171.69,131.70 172.11,127.90 172.54,130.07 172.96,129.53 173.38,131.15 173.80,131.15 174.22,133.87 174.64,131.70 175.07,130.07 175.49,130.07 175.91,131.15 176.33,131.15 176.75,127.90 177.17,132.24 177.59,127.90 178.02,133.32 178.44,129.53 178.86,130.07 179.28,130.07 179.70,134.41 180.12,130.61 180.54,128.98 180.97,130.61 181.39,129.53 181.81,133.32 182.23,129.53 182.65,131.15 183.07,127.90 183.49,133.32 183.92,130.61 184.34,128.44 184.76,129.53 185.18,131.15 185.60,131.70 186.02,133.32 186.45,131.70 186.87,131.70 187.29,130.07 187.71,133.87 188.13,132.78 188.55,129.53 188.97,134.41 189.40,130.61 189.82,129.53 190.24,134.95 190.66,131.70 191.08,128.98 191.50,131.70 191.92,134.41 192.35,129.53 192.77,126.82 193.19,129.53 193.61,129.53 194.03,126.27 194.45,130.07 194.87,127.90 195.30,130.07 195.72,126.82 196.14,131.15 196.56,130.07 196.98,132.24 197.40,130.07 197.83,132.78 198.25,131.15 198.67,133.32 199.09,129.53 199.51,131.15 199.93,131.15 200.35,133.32 200.78,127.90 201.20,131.70 201.62,127.90 202.04,133.32 202.46,127.90 202.88,129.53 203.30,125.73 203.73,130.61 204.15,133.87 204.57,130.61 204.99,128.44 205.41,134.41 205.83,131.70 206.25,131.15 206.68,132.24 207.10,127.36 207.52,128.98 207.94,128.44 208.36,128.44 208.78,130.07 209.21,128.98 209.63,130.07 210.05,127.90 210.47,130.07 210.89,128.98 211.31,129.53 211.73,132.78 212.16,130.61 212.58,127.36 213.00,128.98 213.42,128.44 213.84,129.53 214.26,127.90 214.68,128.98 215.11,131.70 215.53,130.61 215.95,126.82 216.37,130.07 216.79,129.53 217.21,128.44 217.63,131.15 218.06,125.19 218.48,129.53 218.90,130.07 219.32,124.10 219.74,133.87 220.16,131.15 220.59,125.19 221.01,128.44 221.43,125.73 221.85,127.90 222.27,124.65 222.69,129.53 223.11,123.56 223.54,127.90 223.96,128.44 224.38,126.27 224.80,126.27 225.22,130.61 225.64,126.82 226.06,126.82 226.49,125.73 226.91,125.19 227.33,129.53 227.75,127.90 228.17,127.90 228.59,127.90 229.01,120.31 229.44,125.73 229.86,126.82 230.28,128.44 230.70,129.53 231.12,124.65 231.54,123.56 231.97,126.82 232.39,129.53 232.81,125.73 233.23,123.02 233.65,123.56 234.07,123.56 234.49,126.27 234.92,125.73 235.34,124.10 235.76,127.90 236.18,127.90 236.60,121.93 237.02,118.68 237.44,122.48 237.87,126.82 238.29,124.65 238.71,126.82 239.13,119.76 239.55,124.65 239.97,121.39 240.39,119.76 240.82,124.65 241.24,128.44 241.66,119.76 242.08,121.93 242.50,122.48 242.92,120.85 243.35,119.76 243.77,119.76 244.19,118.68 244.61,120.85 245.03,121.93 245.45,125.19 245.87,118.68 246.30,116.51 246.72,119.76 247.14,121.39 247.56,121.93 247.98,118.14 248.40,117.60 248.82,118.14 249.25,124.10 249.67,119.22 250.09,124.10 250.51,115.43 250.93,112.71 251.35,110.54 251.77,112.17 252.20,114.88 252.62,121.93 253.04,113.26 253.46,111.09 253.88,112.71 254.30,111.63 254.73,114.88 255.15,115.97 255.57,115.97 255.99,99.70 256.41,107.83 256.83,112.17 257.25,104.58 257.68,105.12 258.10,110.54 258.52,101.32 258.94,99.70 259.36,94.82 259.78,104.58 260.20,98.61 260.63,101.32 261.05,94.82 261.47,101.32 261.89,88.85 262.31,93.73 262.73,87.22 263.15,81.26 263.58,83.43 264.00,93.73 264.42,88.31 264.84,79.63 265.26,78.55 265.68,70.95 266.11,50.34 266.53,61.73 266.95,59.02 267.37,52.51 "
     style="stroke-width: 1.07; stroke: #F8766D; stroke-linecap: butt;"
     clip-path="url(#cpNTguOTA1M3wyNjcuNjIyfDE0Ni43NzR8NS45Nzc1OA==)"
     id="polyline35" />
  <polyline
     points="59.16,83.43 59.58,96.99 60.00,98.61 60.42,101.87 60.84,105.66 61.27,100.78 61.69,105.12 62.11,109.46 62.53,113.26 62.95,117.05 63.37,113.80 63.79,113.26 64.22,114.88 64.64,117.05 65.06,122.48 65.48,117.60 65.90,117.60 66.32,128.44 66.74,123.56 67.17,124.10 67.59,124.65 68.01,125.19 68.43,125.73 68.85,127.90 69.27,125.19 69.70,127.36 70.12,124.10 70.54,124.65 70.96,124.65 71.38,126.27 71.80,133.32 72.22,127.90 72.65,127.36 73.07,126.82 73.49,130.07 73.91,125.19 74.33,125.73 74.75,131.70 75.17,128.44 75.60,129.53 76.02,131.70 76.44,135.49 76.86,127.36 77.28,128.44 77.70,133.87 78.12,128.98 78.55,128.98 78.97,130.07 79.39,132.24 79.81,127.90 80.23,131.70 80.65,131.70 81.08,128.98 81.50,132.24 81.92,131.15 82.34,133.87 82.76,125.19 83.18,130.07 83.60,132.24 84.03,133.87 84.45,131.70 84.87,129.53 85.29,133.32 85.71,132.78 86.13,132.78 86.55,131.15 86.98,131.70 87.40,132.78 87.82,131.15 88.24,132.78 88.66,133.87 89.08,136.58 89.50,131.15 89.93,132.24 90.35,132.24 90.77,128.98 91.19,132.24 91.61,134.95 92.03,132.24 92.46,133.87 92.88,133.32 93.30,133.87 93.72,135.49 94.14,133.87 94.56,133.32 94.98,133.87 95.41,133.87 95.83,134.95 96.25,133.87 96.67,132.24 97.09,134.41 97.51,135.49 97.93,134.41 98.36,137.12 98.78,133.32 99.20,136.04 99.62,132.78 100.04,134.95 100.46,134.41 100.88,131.15 101.31,131.15 101.73,137.66 102.15,135.49 102.57,132.78 102.99,134.95 103.41,136.04 103.84,133.87 104.26,137.12 104.68,137.12 105.10,134.95 105.52,133.32 105.94,135.49 106.36,136.04 106.79,136.04 107.21,135.49 107.63,135.49 108.05,137.12 108.47,134.95 108.89,136.58 109.31,132.78 109.74,132.24 110.16,136.58 110.58,132.78 111.00,135.49 111.42,133.87 111.84,135.49 112.26,134.95 112.69,135.49 113.11,132.24 113.53,136.58 113.95,135.49 114.37,136.58 114.79,139.29 115.22,133.87 115.64,131.70 116.06,136.58 116.48,133.87 116.90,134.95 117.32,136.58 117.74,136.58 118.17,135.49 118.59,137.66 119.01,136.58 119.43,131.15 119.85,135.49 120.27,134.95 120.69,137.66 121.12,132.78 121.54,135.49 121.96,132.24 122.38,137.12 122.80,137.66 123.22,137.66 123.64,136.58 124.07,136.04 124.49,139.29 124.91,137.12 125.33,134.41 125.75,137.66 126.17,136.04 126.60,137.12 127.02,136.58 127.44,134.41 127.86,136.04 128.28,134.41 128.70,133.87 129.12,134.95 129.55,135.49 129.97,134.41 130.39,134.95 130.81,133.87 131.23,137.66 131.65,134.95 132.07,136.04 132.50,134.41 132.92,135.49 133.34,134.95 133.76,137.66 134.18,139.29 134.60,134.95 135.02,134.95 135.45,131.15 135.87,138.21 136.29,133.87 136.71,136.58 137.13,139.83 137.55,136.58 137.98,134.95 138.40,133.87 138.82,136.04 139.24,138.21 139.66,135.49 140.08,137.12 140.50,136.04 140.93,136.58 141.35,136.58 141.77,136.58 142.19,136.58 142.61,136.58 143.03,136.04 143.45,138.75 143.88,136.04 144.30,136.04 144.72,133.87 145.14,135.49 145.56,134.41 145.98,136.58 146.40,135.49 146.83,133.87 147.25,133.87 147.67,136.58 148.09,137.12 148.51,136.04 148.93,136.04 149.36,137.66 149.78,137.66 150.20,135.49 150.62,133.32 151.04,136.58 151.46,135.49 151.88,131.70 152.31,134.41 152.73,133.87 153.15,134.95 153.57,136.58 153.99,136.04 154.41,136.04 154.83,137.12 155.26,133.87 155.68,137.66 156.10,137.12 156.52,136.58 156.94,134.95 157.36,133.87 157.78,137.12 158.21,138.21 158.63,138.21 159.05,132.78 159.47,134.41 159.89,137.12 160.31,133.87 160.73,136.04 161.16,136.58 161.58,134.41 162.00,134.95 162.42,132.78 162.84,138.75 163.26,135.49 163.69,137.12 164.11,135.49 164.53,136.58 164.95,137.66 165.37,136.58 165.79,137.66 166.21,136.04 166.64,134.41 167.06,136.58 167.48,138.21 167.90,136.58 168.32,136.58 168.74,134.95 169.16,137.66 169.59,133.87 170.01,134.41 170.43,137.12 170.85,138.21 171.27,133.87 171.69,137.12 172.11,134.95 172.54,137.12 172.96,137.12 173.38,134.95 173.80,136.04 174.22,139.29 174.64,136.58 175.07,135.49 175.49,135.49 175.91,137.66 176.33,137.12 176.75,133.32 177.17,137.66 177.59,137.66 178.02,135.49 178.44,136.04 178.86,135.49 179.28,134.41 179.70,138.21 180.12,136.04 180.54,135.49 180.97,136.04 181.39,136.04 181.81,137.12 182.23,134.95 182.65,136.04 183.07,133.87 183.49,138.21 183.92,134.95 184.34,135.49 184.76,136.58 185.18,137.12 185.60,134.95 186.02,137.12 186.45,136.04 186.87,136.58 187.29,136.58 187.71,137.66 188.13,135.49 188.55,135.49 188.97,135.49 189.40,137.66 189.82,134.95 190.24,138.75 190.66,136.04 191.08,134.41 191.50,136.58 191.92,137.66 192.35,133.32 192.77,133.32 193.19,137.66 193.61,135.49 194.03,133.32 194.45,136.58 194.87,136.04 195.30,132.78 195.72,133.87 196.14,134.95 196.56,135.49 196.98,137.66 197.40,136.04 197.83,134.41 198.25,134.95 198.67,138.21 199.09,132.78 199.51,136.58 199.93,137.66 200.35,136.04 200.78,135.49 201.20,137.12 201.62,133.87 202.04,136.58 202.46,133.87 202.88,132.78 203.30,137.12 203.73,136.58 204.15,137.66 204.57,134.95 204.99,133.32 205.41,137.66 205.83,134.95 206.25,135.49 206.68,136.58 207.10,134.41 207.52,137.12 207.94,136.04 208.36,136.58 208.78,134.95 209.21,132.78 209.63,136.58 210.05,134.41 210.47,134.95 210.89,133.87 211.31,135.49 211.73,134.41 212.16,138.21 212.58,137.12 213.00,133.87 213.42,136.58 213.84,134.41 214.26,133.87 214.68,136.58 215.11,137.12 215.53,136.58 215.95,132.78 216.37,136.04 216.79,137.12 217.21,133.32 217.63,136.04 218.06,132.78 218.48,134.41 218.90,134.95 219.32,132.78 219.74,138.75 220.16,135.49 220.59,131.70 221.01,134.95 221.43,131.70 221.85,136.58 222.27,132.24 222.69,136.04 223.11,134.41 223.54,131.70 223.96,135.49 224.38,132.78 224.80,131.15 225.22,134.41 225.64,132.24 226.06,134.41 226.49,132.78 226.91,132.24 227.33,136.58 227.75,135.49 228.17,133.32 228.59,134.95 229.01,129.53 229.44,132.78 229.86,133.87 230.28,135.49 230.70,136.04 231.12,134.41 231.54,130.61 231.97,134.41 232.39,135.49 232.81,135.49 233.23,132.24 233.65,130.07 234.07,130.61 234.49,132.78 234.92,133.32 235.34,133.87 235.76,134.41 236.18,132.78 236.60,132.78 237.02,131.15 237.44,133.87 237.87,134.41 238.29,132.78 238.71,133.32 239.13,125.73 239.55,130.07 239.97,133.87 240.39,127.90 240.82,134.41 241.24,135.49 241.66,131.70 242.08,131.15 242.50,133.32 242.92,131.15 243.35,132.24 243.77,127.90 244.19,131.15 244.61,131.70 245.03,132.24 245.45,131.15 245.87,130.61 246.30,129.53 246.72,128.44 247.14,131.70 247.56,130.07 247.98,128.98 248.40,130.61 248.82,132.24 249.25,132.78 249.67,127.90 250.09,134.95 250.51,128.44 250.93,127.36 251.35,125.19 251.77,124.10 252.20,131.70 252.62,133.32 253.04,130.07 253.46,127.36 253.88,125.73 254.30,126.82 254.73,126.27 255.15,130.07 255.57,130.61 255.99,117.60 256.41,125.73 256.83,126.82 257.25,124.10 257.68,120.31 258.10,126.82 258.52,118.68 258.94,125.73 259.36,119.76 259.78,125.73 260.20,118.14 260.63,125.19 261.05,121.39 261.47,123.56 261.89,118.14 262.31,119.76 262.73,118.14 263.15,112.71 263.58,111.09 264.00,116.51 264.42,110.54 264.84,114.34 265.26,113.80 265.68,108.92 266.11,100.78 266.53,102.95 266.95,106.75 267.37,104.04 "
     style="stroke-width: 1.07; stroke: #00BA38; stroke-linecap: butt;"
     clip-path="url(#cpNTguOTA1M3wyNjcuNjIyfDE0Ni43NzR8NS45Nzc1OA==)"
     id="polyline37" />
  <polyline
     points="59.16,133.32 59.58,135.49 60.00,133.87 60.42,132.78 60.84,134.95 61.27,134.41 61.69,134.41 62.11,134.41 62.53,137.66 62.95,134.41 63.37,137.66 63.79,134.41 64.22,134.41 64.64,139.29 65.06,138.75 65.48,137.66 65.90,137.12 66.32,139.29 66.74,137.66 67.17,139.29 67.59,137.12 68.01,137.66 68.43,135.49 68.85,138.21 69.27,139.83 69.70,137.12 70.12,138.21 70.54,137.66 70.96,136.58 71.38,137.66 71.80,137.12 72.22,136.04 72.65,138.21 73.07,138.21 73.49,137.12 73.91,137.12 74.33,137.12 74.75,137.12 75.17,140.37 75.60,137.12 76.02,139.83 76.44,140.37 76.86,138.21 77.28,138.21 77.70,137.12 78.12,137.66 78.55,138.75 78.97,138.21 79.39,139.83 79.81,139.29 80.23,138.21 80.65,139.83 81.08,139.29 81.50,138.21 81.92,138.21 82.34,139.83 82.76,137.12 83.18,138.75 83.60,139.29 84.03,138.21 84.45,139.29 84.87,138.21 85.29,140.37 85.71,139.83 86.13,139.29 86.55,139.29 86.98,139.83 87.40,138.75 87.82,139.83 88.24,138.75 88.66,139.29 89.08,138.75 89.50,138.21 89.93,137.66 90.35,138.21 90.77,139.83 91.19,139.29 91.61,138.75 92.03,138.75 92.46,138.75 92.88,138.21 93.30,137.12 93.72,140.37 94.14,138.21 94.56,139.29 94.98,139.29 95.41,139.29 95.83,139.29 96.25,138.75 96.67,138.21 97.09,138.75 97.51,139.29 97.93,139.29 98.36,139.83 98.78,138.21 99.20,139.83 99.62,138.75 100.04,140.37 100.46,139.83 100.88,138.75 101.31,138.75 101.73,139.29 102.15,140.37 102.57,138.21 102.99,138.75 103.41,139.83 103.84,139.83 104.26,140.37 104.68,139.83 105.10,139.29 105.52,140.37 105.94,139.29 106.36,139.83 106.79,139.83 107.21,139.29 107.63,138.75 108.05,139.83 108.47,139.29 108.89,139.83 109.31,138.75 109.74,138.75 110.16,139.29 110.58,139.29 111.00,139.83 111.42,138.75 111.84,139.83 112.26,139.29 112.69,139.83 113.11,138.75 113.53,139.29 113.95,138.75 114.37,138.75 114.79,140.37 115.22,138.75 115.64,137.66 116.06,139.83 116.48,140.37 116.90,139.83 117.32,138.75 117.74,139.83 118.17,138.21 118.59,139.29 119.01,139.83 119.43,138.75 119.85,139.83 120.27,140.37 120.69,139.83 121.12,138.21 121.54,138.21 121.96,139.29 122.38,138.75 122.80,138.75 123.22,139.83 123.64,139.83 124.07,140.37 124.49,140.37 124.91,139.83 125.33,139.29 125.75,139.83 126.17,139.83 126.60,139.29 127.02,139.83 127.44,139.29 127.86,139.29 128.28,139.29 128.70,139.29 129.12,140.37 129.55,139.29 129.97,139.29 130.39,138.21 130.81,139.83 131.23,139.83 131.65,139.29 132.07,139.29 132.50,139.83 132.92,138.75 133.34,139.83 133.76,140.37 134.18,139.83 134.60,139.29 135.02,140.37 135.45,138.21 135.87,140.37 136.29,137.66 136.71,140.37 137.13,140.37 137.55,139.29 137.98,139.29 138.40,139.83 138.82,138.75 139.24,139.29 139.66,139.83 140.08,139.83 140.50,140.37 140.93,139.83 141.35,140.37 141.77,139.83 142.19,139.29 142.61,139.83 143.03,137.66 143.45,140.37 143.88,138.75 144.30,139.83 144.72,139.83 145.14,140.37 145.56,138.75 145.98,139.29 146.40,139.83 146.83,140.37 147.25,140.37 147.67,138.21 148.09,139.83 148.51,140.37 148.93,139.83 149.36,139.29 149.78,140.37 150.20,140.37 150.62,139.29 151.04,139.83 151.46,138.21 151.88,139.29 152.31,139.29 152.73,138.75 153.15,139.83 153.57,138.75 153.99,139.83 154.41,139.29 154.83,139.83 155.26,139.29 155.68,139.83 156.10,140.37 156.52,139.29 156.94,139.29 157.36,139.83 157.78,139.83 158.21,139.29 158.63,140.37 159.05,139.83 159.47,138.75 159.89,139.29 160.31,139.29 160.73,139.83 161.16,139.29 161.58,138.21 162.00,139.29 162.42,139.83 162.84,139.83 163.26,139.83 163.69,140.37 164.11,139.29 164.53,138.21 164.95,139.83 165.37,139.29 165.79,139.29 166.21,140.37 166.64,139.29 167.06,138.75 167.48,140.37 167.90,139.29 168.32,140.37 168.74,139.29 169.16,139.83 169.59,138.75 170.01,139.29 170.43,140.37 170.85,139.29 171.27,137.66 171.69,140.37 172.11,138.75 172.54,140.37 172.96,140.37 173.38,139.29 173.80,139.29 174.22,139.83 174.64,140.37 175.07,139.83 175.49,138.75 175.91,138.75 176.33,139.83 176.75,138.75 177.17,139.83 177.59,139.83 178.02,139.29 178.44,139.29 178.86,139.29 179.28,140.37 179.70,140.37 180.12,140.37 180.54,138.75 180.97,139.83 181.39,139.83 181.81,140.37 182.23,138.21 182.65,139.29 183.07,138.21 183.49,140.37 183.92,138.75 184.34,140.37 184.76,139.83 185.18,138.21 185.60,139.83 186.02,140.37 186.45,138.75 186.87,139.29 187.29,139.29 187.71,139.83 188.13,138.75 188.55,139.29 188.97,138.75 189.40,140.37 189.82,138.75 190.24,140.37 190.66,139.29 191.08,139.83 191.50,139.83 191.92,139.83 192.35,139.29 192.77,138.75 193.19,140.37 193.61,136.58 194.03,138.75 194.45,139.83 194.87,139.83 195.30,138.75 195.72,138.75 196.14,138.75 196.56,138.75 196.98,140.37 197.40,138.75 197.83,140.37 198.25,138.75 198.67,140.37 199.09,139.29 199.51,139.83 199.93,140.37 200.35,139.29 200.78,138.75 201.20,139.29 201.62,139.29 202.04,139.83 202.46,138.21 202.88,139.29 203.30,139.83 203.73,139.83 204.15,140.37 204.57,139.83 204.99,137.66 205.41,139.29 205.83,139.83 206.25,139.83 206.68,139.29 207.10,138.21 207.52,139.83 207.94,139.83 208.36,138.75 208.78,139.83 209.21,137.12 209.63,139.83 210.05,139.83 210.47,139.83 210.89,137.66 211.31,139.83 211.73,140.37 212.16,139.29 212.58,140.37 213.00,138.75 213.42,139.83 213.84,139.29 214.26,139.83 214.68,139.29 215.11,139.83 215.53,138.21 215.95,138.21 216.37,139.83 216.79,139.29 217.21,139.83 217.63,139.83 218.06,138.75 218.48,139.29 218.90,138.75 219.32,138.21 219.74,140.37 220.16,139.83 220.59,138.21 221.01,139.83 221.43,137.66 221.85,139.83 222.27,136.58 222.69,139.83 223.11,138.75 223.54,140.37 223.96,139.29 224.38,139.29 224.80,139.29 225.22,140.37 225.64,138.21 226.06,139.83 226.49,138.75 226.91,138.21 227.33,139.29 227.75,139.83 228.17,138.75 228.59,139.29 229.01,138.21 229.44,137.66 229.86,139.83 230.28,140.37 230.70,140.37 231.12,139.83 231.54,138.21 231.97,139.83 232.39,138.75 232.81,139.29 233.23,138.75 233.65,138.75 234.07,138.75 234.49,138.21 234.92,139.29 235.34,138.75 235.76,139.29 236.18,138.21 236.60,139.83 237.02,139.29 237.44,137.12 237.87,139.29 238.29,139.83 238.71,139.29 239.13,137.12 239.55,138.75 239.97,137.12 240.39,137.66 240.82,139.29 241.24,139.29 241.66,139.83 242.08,139.29 242.50,139.29 242.92,137.66 243.35,138.75 243.77,137.66 244.19,138.75 244.61,138.21 245.03,139.83 245.45,138.75 245.87,138.75 246.30,140.37 246.72,136.04 247.14,137.66 247.56,137.12 247.98,139.29 248.40,138.21 248.82,137.66 249.25,139.83 249.67,139.29 250.09,139.83 250.51,139.29 250.93,139.29 251.35,137.12 251.77,138.75 252.20,135.49 252.62,140.37 253.04,139.29 253.46,137.66 253.88,136.58 254.30,138.21 254.73,136.58 255.15,138.21 255.57,137.66 255.99,134.95 256.41,139.29 256.83,137.66 257.25,137.66 257.68,137.12 258.10,139.29 258.52,137.66 258.94,137.66 259.36,138.21 259.78,137.66 260.20,135.49 260.63,139.83 261.05,137.12 261.47,137.66 261.89,137.12 262.31,137.12 262.73,137.12 263.15,138.21 263.58,134.95 264.00,139.29 264.42,135.49 264.84,132.78 265.26,134.95 265.68,131.15 266.11,132.24 266.53,135.49 266.95,135.49 267.37,134.95 "
     style="stroke-width: 1.07; stroke: #619CFF; stroke-linecap: butt;"
     clip-path="url(#cpNTguOTA1M3wyNjcuNjIyfDE0Ni43NzR8NS45Nzc1OA==)"
     id="polyline39" />
  <rect
     x="58.91"
     y="5.98"
     width="208.72"
     height="140.80"
     style="stroke-width: 1.07; stroke: #333333;"
     clip-path="url(#cpNTguOTA1M3wyNjcuNjIyfDE0Ni43NzR8NS45Nzc1OA==)"
     id="rect41" />
  <defs
     id="defs46">
    <clipPath
       id="cpMHwyNzMuNnwxODB8MA==">
      <rect
         x="0.00"
         y="0.00"
         width="273.60"
         height="180.00"
         id="rect43" />
    </clipPath>
  </defs>
  <polyline
     points="58.91,146.77 58.91,5.98 "
     style="stroke-width: 1.07; stroke-linecap: butt;"
     clip-path="url(#cpMHwyNzMuNnwxODB8MA==)"
     id="polyline48" />
  <g
     clip-path="url(#cpMHwyNzMuNnwxODB8MA==)"
     id="g52">
    <text
       x="22.94"
       y="143.95"
       style="font-size: 9.60px; fill: #4D4D4D; font-family: Arial;"
       textLength="30.59px"
       lengthAdjust="spacingAndGlyphs"
       id="text50">0.0000</text>
  </g>
  <g
     clip-path="url(#cpMHwyNzMuNnwxODB8MA==)"
     id="g56">
    <text
       x="22.94"
       y="116.83"
       style="font-size: 9.60px; fill: #4D4D4D; font-family: Arial;"
       textLength="30.59px"
       lengthAdjust="spacingAndGlyphs"
       id="text54">0.0005</text>
  </g>
  <g
     clip-path="url(#cpMHwyNzMuNnwxODB8MA==)"
     id="g60">
    <text
       x="22.94"
       y="89.72"
       style="font-size: 9.60px; fill: #4D4D4D; font-family: Arial;"
       textLength="30.59px"
       lengthAdjust="spacingAndGlyphs"
       id="text58">0.0010</text>
  </g>
  <g
     clip-path="url(#cpMHwyNzMuNnwxODB8MA==)"
     id="g64">
    <text
       x="22.94"
       y="62.60"
       style="font-size: 9.60px; fill: #4D4D4D; font-family: Arial;"
       textLength="30.59px"
       lengthAdjust="spacingAndGlyphs"
       id="text62">0.0015</text>
  </g>
  <g
     clip-path="url(#cpMHwyNzMuNnwxODB8MA==)"
     id="g68">
    <text
       x="22.94"
       y="35.48"
       style="font-size: 9.60px; fill: #4D4D4D; font-family: Arial;"
       textLength="30.59px"
       lengthAdjust="spacingAndGlyphs"
       id="text66">0.0020</text>
  </g>
  <polyline
     points="55.92,140.37 58.91,140.37 "
     style="stroke-width: 1.07; stroke: #333333; stroke-linecap: butt;"
     clip-path="url(#cpMHwyNzMuNnwxODB8MA==)"
     id="polyline70" />
  <polyline
     points="55.92,113.26 58.91,113.26 "
     style="stroke-width: 1.07; stroke: #333333; stroke-linecap: butt;"
     clip-path="url(#cpMHwyNzMuNnwxODB8MA==)"
     id="polyline72" />
  <polyline
     points="55.92,86.14 58.91,86.14 "
     style="stroke-width: 1.07; stroke: #333333; stroke-linecap: butt;"
     clip-path="url(#cpMHwyNzMuNnwxODB8MA==)"
     id="polyline74" />
  <polyline
     points="55.92,59.02 58.91,59.02 "
     style="stroke-width: 1.07; stroke: #333333; stroke-linecap: butt;"
     clip-path="url(#cpMHwyNzMuNnwxODB8MA==)"
     id="polyline76" />
  <polyline
     points="55.92,31.90 58.91,31.90 "
     style="stroke-width: 1.07; stroke: #333333; stroke-linecap: butt;"
     clip-path="url(#cpMHwyNzMuNnwxODB8MA==)"
     id="polyline78" />
  <polyline
     points="58.91,146.77 267.62,146.77 "
     style="stroke-width: 1.07; stroke-linecap: butt;"
     clip-path="url(#cpMHwyNzMuNnwxODB8MA==)"
     id="polyline80" />
  <polyline
     points="100.46,149.76 100.46,146.77 "
     style="stroke-width: 1.07; stroke: #333333; stroke-linecap: butt;"
     clip-path="url(#cpMHwyNzMuNnwxODB8MA==)"
     id="polyline82" />
  <polyline
     points="142.61,149.76 142.61,146.77 "
     style="stroke-width: 1.07; stroke: #333333; stroke-linecap: butt;"
     clip-path="url(#cpMHwyNzMuNnwxODB8MA==)"
     id="polyline84" />
  <polyline
     points="184.76,149.76 184.76,146.77 "
     style="stroke-width: 1.07; stroke: #333333; stroke-linecap: butt;"
     clip-path="url(#cpMHwyNzMuNnwxODB8MA==)"
     id="polyline86" />
  <polyline
     points="226.91,149.76 226.91,146.77 "
     style="stroke-width: 1.07; stroke: #333333; stroke-linecap: butt;"
     clip-path="url(#cpMHwyNzMuNnwxODB8MA==)"
     id="polyline88" />
  <g
     clip-path="url(#cpMHwyNzMuNnwxODB8MA==)"
     id="g92">
    <text
       x="92.12"
       y="159.31"
       style="font-size: 9.60px; fill: #4D4D4D; font-family: Arial;"
       textLength="16.68px"
       lengthAdjust="spacingAndGlyphs"
       id="text90">100</text>
  </g>
  <g
     clip-path="url(#cpMHwyNzMuNnwxODB8MA==)"
     id="g96">
    <text
       x="134.27"
       y="159.31"
       style="font-size: 9.60px; fill: #4D4D4D; font-family: Arial;"
       textLength="16.68px"
       lengthAdjust="spacingAndGlyphs"
       id="text94">200</text>
  </g>
  <g
     clip-path="url(#cpMHwyNzMuNnwxODB8MA==)"
     id="g100">
    <text
       x="176.42"
       y="159.31"
       style="font-size: 9.60px; fill: #4D4D4D; font-family: Arial;"
       textLength="16.68px"
       lengthAdjust="spacingAndGlyphs"
       id="text98">300</text>
  </g>
  <g
     clip-path="url(#cpMHwyNzMuNnwxODB8MA==)"
     id="g104">
    <text
       x="218.57"
       y="159.31"
       style="font-size: 9.60px; fill: #4D4D4D; font-family: Arial;"
       textLength="16.68px"
       lengthAdjust="spacingAndGlyphs"
       id="text102">400</text>
  </g>
  <g
     clip-path="url(#cpMHwyNzMuNnwxODB8MA==)"
     id="g108">
    <text
       x="149.93"
       y="173.88"
       style="font-size: 12.00px; font-family: Arial;"
       textLength="26.67px"
       lengthAdjust="spacingAndGlyphs"
       id="text106">Time</text>
  </g>
  <g
     clip-path="url(#cpMHwyNzMuNnwxODB8MA==)"
     id="g112">
    <text
       transform="translate(14.57,125.06) rotate(-90)"
       style="font-size: 12.00px; font-family: Arial;"
       textLength="97.38px"
       lengthAdjust="spacingAndGlyphs"
       id="text110">False positive rate</text>
  </g>
  <rect
     x="96.89"
     y="72.72"
     width="17.28"
     height="17.28"
     style="stroke-width: 1.07; stroke: none; fill: #FFFFFF;"
     clip-path="url(#cpMHwyNzMuNnwxODB8MA==)"
     id="rect124" />
  <rect
     x="96.89"
     y="90.00"
     width="17.28"
     height="17.28"
     style="stroke-width: 1.07; stroke: none; fill: #FFFFFF;"
     clip-path="url(#cpMHwyNzMuNnwxODB8MA==)"
     id="rect128" />
  <rect
     x="96.89"
     y="107.28"
     width="17.28"
     height="17.28"
     style="stroke-width: 1.07; stroke: none; fill: #FFFFFF;"
     clip-path="url(#cpMHwyNzMuNnwxODB8MA==)"
     id="rect132" />
  <g
     id="g197"
     transform="translate(22,-4)">
    <g
       transform="translate(80,-32)"
       id="g118"
       clip-path="url(#cpMHwyNzMuNnwxODB8MA==)">
      <text
         id="text116"
         lengthAdjust="spacingAndGlyphs"
         textLength="60.709999"
         style="font-size:12px;font-family:Arial"
         y="55.439999"
         x="96.889999">Confidence</text>
    </g>
    <g
       transform="translate(80,-32)"
       id="g122"
       clip-path="url(#cpMHwyNzMuNnwxODB8MA==)">
      <text
         id="text120"
         lengthAdjust="spacingAndGlyphs"
         textLength="53.360001"
         style="font-size:12px;font-family:Arial"
         y="68.400002"
         x="96.889999">Threshold</text>
    </g>
    <line
       transform="translate(80,-32)"
       id="line126"
       clip-path="url(#cpMHwyNzMuNnwxODB8MA==)"
       style="fill:none;stroke:#f8766d;stroke-width:1.07000005;stroke-linecap:butt;stroke-linejoin:round;stroke-miterlimit:10"
       y2="81.360001"
       x2="112.44"
       y1="81.360001"
       x1="98.610001" />
    <line
       transform="translate(80,-32)"
       id="line130"
       clip-path="url(#cpMHwyNzMuNnwxODB8MA==)"
       style="fill:none;stroke:#00ba38;stroke-width:1.07000005;stroke-linecap:butt;stroke-linejoin:round;stroke-miterlimit:10"
       y2="98.639999"
       x2="112.44"
       y1="98.639999"
       x1="98.610001" />
    <line
       transform="translate(80,-32)"
       id="line134"
       clip-path="url(#cpMHwyNzMuNnwxODB8MA==)"
       style="fill:none;stroke:#619cff;stroke-width:1.07000005;stroke-linecap:butt;stroke-linejoin:round;stroke-miterlimit:10"
       y2="115.92"
       x2="112.44"
       y1="115.92"
       x1="98.610001" />
    <g
       transform="translate(80,-32)"
       id="g138"
       clip-path="url(#cpMHwyNzMuNnwxODB8MA==)">
      <text
         id="text136"
         lengthAdjust="spacingAndGlyphs"
         textLength="19.459999"
         style="font-size:9.60000038px;font-family:Arial"
         y="84.940002"
         x="116.33">0.90</text>
    </g>
    <g
       transform="translate(80,-32)"
       id="g142"
       clip-path="url(#cpMHwyNzMuNnwxODB8MA==)">
      <text
         id="text140"
         lengthAdjust="spacingAndGlyphs"
         textLength="19.459999"
         style="font-size:9.60000038px;font-family:Arial"
         y="102.22"
         x="116.33">0.95</text>
    </g>
    <g
       transform="translate(80,-32)"
       id="g146"
       clip-path="url(#cpMHwyNzMuNnwxODB8MA==)">
      <text
         id="text144"
         lengthAdjust="spacingAndGlyphs"
         textLength="19.459999"
         style="font-size:9.60000038px;font-family:Arial"
         y="119.5"
         x="116.33">0.99</text>
    </g>
  </g>
</svg>
